<svg id="a5ad5c70-036f-4384-aea2-2ad8b20f0366" data-name="Layer 1" xmlns="http://www.w3.org/2000/svg" width="11.97153mm" height="11.96654mm" viewBox="0 0 33.93506 33.9209">
  <defs>
    <style>
      .adac0413-f5f8-4834-9111-6f24dc75b361 {
        fill: #ffffff;
      }
    </style>
  </defs>
  <path class="adac0413-f5f8-4834-9111-6f24dc75b361" d="M21.94971,15.85254A8.767,8.767,0,0,0,16.92236,0a8.76853,8.76853,0,0,0-5.0039,15.87109A17.28389,17.28389,0,0,0,0,32.2793a1.63364,1.63364,0,0,0,1.62207,1.6416H32.37842l.1001-.00684v-.00683a1.62709,1.62709,0,0,0,1.45654-1.62793A17.2689,17.2689,0,0,0,21.94971,15.85254ZM11.53516,8.74707A5.38821,5.38821,0,1,1,16.92236,14.21,5.431,5.431,0,0,1,11.53516,8.74707Zm5.4331,9.62207A13.74371,13.74371,0,0,1,30.60889,30.76172H3.32568A13.74559,13.74559,0,0,1,16.96826,18.36914Z"/>
</svg>
