<svg width="12" height="15" viewBox="0 0 12 15" fill="none" xmlns="http://www.w3.org/2000/svg">
<path d="M5.3291 7.50293C5.18262 7.03418 5.18555 6.12891 5.27051 6.12891C5.5166 6.12891 5.49316 7.20996 5.3291 7.50293ZM5.2793 8.88574C5.05371 9.47754 4.77246 10.1543 4.44727 10.7227C4.9834 10.5176 5.58984 10.2188 6.29004 10.0811C5.91797 9.7998 5.56055 9.39551 5.2793 8.88574ZM2.52246 12.542C2.52246 12.5654 2.90918 12.3838 3.54492 11.3643C3.34863 11.5488 2.69238 12.082 2.52246 12.542ZM7.26562 4.6875H11.25V14.2969C11.25 14.6865 10.9365 15 10.5469 15H0.703125C0.313477 15 0 14.6865 0 14.2969V0.703125C0 0.313477 0.313477 0 0.703125 0H6.5625V3.98438C6.5625 4.37109 6.87891 4.6875 7.26562 4.6875ZM7.03125 9.7207C6.44531 9.36328 6.05566 8.87109 5.78027 8.14453C5.91211 7.60254 6.12012 6.7793 5.96191 6.26367C5.82422 5.40234 4.71973 5.4873 4.56152 6.06445C4.41504 6.60059 4.5498 7.35645 4.79883 8.32031C4.45898 9.12891 3.95801 10.2129 3.60352 10.834C3.60059 10.834 3.60059 10.8369 3.59766 10.8369C2.80371 11.2441 1.44141 12.1406 2.00098 12.8291C2.16504 13.0312 2.46973 13.1221 2.63086 13.1221C3.15527 13.1221 3.67676 12.5947 4.4209 11.3115C5.17676 11.0625 6.00586 10.752 6.73535 10.6318C7.37109 10.9775 8.11523 11.2031 8.61035 11.2031C9.46582 11.2031 9.52441 10.2656 9.1875 9.93164C8.78027 9.5332 7.59668 9.64746 7.03125 9.7207ZM11.0449 3.07617L8.17383 0.205078C8.04199 0.0732422 7.86328 0 7.67578 0H7.5V3.75H11.25V3.57129C11.25 3.38672 11.1768 3.20801 11.0449 3.07617ZM8.87402 10.5557C8.99414 10.4766 8.80078 10.207 7.62012 10.292C8.70703 10.7549 8.87402 10.5557 8.87402 10.5557Z" fill="#5A4392"/>
</svg>
